HIERARCHY
ROOT Hips
{
	OFFSET 0.00000 0.00000 0.00000
	CHANNELS 6 Xposition Yposition Zposition Zrotation Yrotation Xrotation 
	JOINT LHipJoint
	{
		OFFSET 0 0 0
		CHANNELS 3 Zrotation Yrotation Xrotation
		JOINT LeftHip
		{
			OFFSET 1.57338 -1.94743 0.52196
			CHANNELS 3 Zrotation Yrotation Xrotation
			JOINT LeftKnee
			{
				OFFSET 2.60333 -7.15259 0.00000
				CHANNELS 3 Zrotation Yrotation Xrotation
				JOINT LeftAnkle
				{
					OFFSET 2.77855 -7.63400 0.00000
					CHANNELS 3 Zrotation Yrotation Xrotation
					JOINT LeftToe
					{
						OFFSET 0.19847 -0.54529 2.28466
						CHANNELS 3 Zrotation Yrotation Xrotation
						End Site
						{
							OFFSET 0.00000 -0.00000 1.17993
						}
					}
				}
			}
		}
	}
	JOINT RHipJoint
	{
		OFFSET 0 0 0
		CHANNELS 3 Zrotation Yrotation Xrotation
		JOINT RightHip
		{
			OFFSET -1.61527 -1.94743 0.52196
			CHANNELS 3 Zrotation Yrotation Xrotation
			JOINT RightKnee
			{
				OFFSET -2.53829 -6.97390 0.00000
				CHANNELS 3 Zrotation Yrotation Xrotation
				JOINT RightAnkle
				{
					OFFSET -2.80762 -7.71387 0.00000
					CHANNELS 3 Zrotation Yrotation Xrotation
					JOINT RightToe
					{
						OFFSET -0.30536 -0.83898 2.28801
						CHANNELS 3 Zrotation Yrotation Xrotation
						End Site
						{
							OFFSET -0.00000 -0.00000 1.21323
						}
					}
				}
			}
		}
	}
	JOINT lowerback
	{
		OFFSET 0 0 0
		CHANNELS 3 Zrotation Yrotation Xrotation
		JOINT Chest
		{
			OFFSET -0.04381 1.99497 -0.19778
			CHANNELS 3 Zrotation Yrotation Xrotation
			JOINT Chest2
			{
				OFFSET -0.01959 2.01295 -0.04372
				CHANNELS 3 Zrotation Yrotation Xrotation
				JOINT lowerneck
				{
					OFFSET 0 0 0
					CHANNELS 3 Zrotation Yrotation Xrotation
					JOINT Neck
					{
						OFFSET -0.05459 1.76913 0.09708
						CHANNELS 3 Zrotation Yrotation Xrotation
						JOINT Head
						{
							OFFSET 0.09461 1.77368 -0.11172
							CHANNELS 3 Zrotation Yrotation Xrotation
							End Site
							{
								OFFSET 0.03812 1.78157 -0.04834
							}
						}
					}
				}
				JOINT LeftCollar
				{
					OFFSET 0 0 0
					CHANNELS 3 Zrotation Yrotation Xrotation
					JOINT LeftShoulder
					{
						OFFSET 3.50922 1.24034 -0.28866
CHANNELS 3 Zrotation Xrotation Yrotation
						JOINT LeftElbow
						{
OFFSET 0 -5.401880 0.000000
CHANNELS 3 Zrotation Xrotation Yrotation
							JOINT LeftWrist
							{
OFFSET 0 -3.685590 0.000000
CHANNELS 3 Zrotation Xrotation Yrotation
								JOINT lhand
								{
									OFFSET 0 0 0
CHANNELS 3 Zrotation Xrotation Yrotation
									JOINT LFingers
									{
OFFSET 0 -0.617530 0.000000
CHANNELS 3 Zrotation Xrotation Yrotation
										End Site
										{
OFFSET 0 -0.497870 0.000000
										}
									}
								}
								JOINT LThumb
								{
OFFSET 0 0.000000 0.000000
CHANNELS 3 Zrotation Xrotation Yrotation
									End Site
									{
OFFSET 0 -0.505470 0.505470
									}
								}
							}
						}
					}
				}
				JOINT RightCollar
				{
					OFFSET 0 0 0
					CHANNELS 3 Zrotation Yrotation Xrotation
					JOINT RightShoulder
					{
						OFFSET -2.95373 1.39649 -0.27346
CHANNELS 3 Zrotation Xrotation Yrotation
						JOINT RightElbow
						{
OFFSET 0 -6.106700 -0.000000
CHANNELS 3 Zrotation Xrotation Yrotation
							JOINT RightWrist
							{
OFFSET 0 -3.630520 0.000000
CHANNELS 3 Zrotation Xrotation Yrotation
								JOINT rhand
								{
									OFFSET 0 0 0
CHANNELS 3 Zrotation Xrotation Yrotation
									JOINT RFingers
									{
OFFSET 0 -0.583850 0.000000
CHANNELS 3 Zrotation Xrotation Yrotation
										End Site
										{
OFFSET 0 -0.470710 0.000000
										}
									}
								}
								JOINT RThumb
								{
OFFSET 0 0.000000 0.000000
CHANNELS 3 Zrotation Xrotation Yrotation
									End Site
									{
OFFSET 0 -0.477900 0.477900
									}
								}
							}
						}
					}
				}
			}
		}
	}
}
MOTION
Frames: 11
Frame Time: 0.008333333333333333
-2.701417 18.280206 6.380449 9.435996 -16.057532 -2.158303 0.000000 0.000000 0.000000 -15.154708 -4.231893 -3.406029 2.419476 9.689830 27.978284 0.122143 5.535090 -10.827624 2.244019 -9.356888 -26.918286 0.000000 0.000000 0.000000 6.019207 25.727978 -9.580600 -4.419618 -12.698784 38.251119 -1.389313 -4.530836 -24.306685 -0.228897 3.079390 -8.499888 -2.206024 1.935762 8.307036 -1.235288 2.351903 2.817136 -0.263526 1.166545 -1.774952 -8.197892 -8.531282 -9.488440 12.422683 -11.151039 2.120250 4.375679 -5.195608 3.355690 0.000000 0.000000 0.000000 20.537818 0.289415 -27.194369 18.004482 -28.162685 4.551526 25.606485 18.328867 -17.744564 0.000000 0.000000 0.000000 -7.125000 0.000000 0.000000 -2.374771 49.502224 0.263917 0.000000 0.000000 0.000000 -34.066463 -46.149233 23.151091 -54.689180 -54.720148 -29.962137 -39.821807 27.471017 0.469336 0.000000 0.000000 0.000000 7.125000 0.000000 0.000000 -10.470721 30.496797 -3.764349
-2.913488 18.380972 6.404326 10.534395 -17.410037 -2.928095 0.000000 0.000000 0.000000 -15.428111 -3.420440 -3.295923 2.485268 9.810983 28.366792 -0.068457 6.380044 -6.991308 2.617055 -10.047468 -29.130726 0.000000 0.000000 0.000000 5.968217 26.121796 -8.196115 -4.097585 -12.289106 36.762727 -1.314985 -4.142094 -23.508938 -0.196069 2.851632 -7.865997 -2.460265 2.418556 7.979117 -1.600965 2.975854 2.787800 -0.545732 1.477400 -1.624539 -7.662522 -8.886468 -9.981799 12.697445 -11.780477 3.056260 4.283032 -5.447300 3.769812 0.000000 0.000000 0.000000 21.370215 -2.524965 -27.501413 17.793549 -27.891944 4.452282 26.517049 17.588645 -18.514581 0.000000 0.000000 0.000000 -7.125000 0.000000 0.000000 -1.630144 50.490899 0.220848 0.000000 0.000000 0.000000 -27.210923 -52.791240 34.538775 -54.381116 -54.616590 -29.710756 -40.901593 27.550139 -1.377589 0.000000 0.000000 0.000000 7.125000 0.000000 0.000000 -11.040752 28.093320 -4.619787
-3.100989 18.517159 6.451667 9.449549 -18.881252 -2.019068 0.000000 0.000000 0.000000 -13.927064 -3.657857 -3.419147 2.437487 9.723212 28.085081 -0.225836 8.628089 -5.309579 2.745652 -10.271266 -29.859874 0.000000 0.000000 0.000000 7.751375 26.956394 -7.198071 -3.526570 -11.502140 33.992897 -1.131249 -4.388713 -22.120208 -0.143762 2.443242 -6.732319 -1.100209 2.782530 7.310828 -1.165502 3.581139 1.957670 -0.903786 1.784472 -2.062830 -7.418976 -9.246302 -10.191159 13.376592 -12.409467 3.631670 4.371866 -5.698398 4.076836 0.000000 0.000000 0.000000 21.246459 -3.271401 -27.664661 19.372920 -29.879175 5.215450 27.669447 16.674031 -18.399152 0.000000 0.000000 0.000000 -7.125000 0.000000 0.000000 -0.452793 50.564871 0.062414 0.000000 0.000000 0.000000 -24.423211 -62.454144 40.199851 -55.857608 -55.101069 -30.918207 -42.411123 22.854033 -2.392028 0.000000 0.000000 0.000000 7.125000 0.000000 0.000000 -12.013369 26.693434 -5.449209
-3.263162 18.675190 6.538221 9.033441 -18.784924 -1.170824 0.000000 0.000000 0.000000 -13.413585 -4.422005 -2.781559 2.131452 9.134606 26.217283 -0.396746 11.092880 -3.597926 2.120563 -9.112724 -26.148638 0.000000 0.000000 0.000000 8.737198 26.747149 -5.471360 -2.880265 -10.498388 30.606521 -0.959960 -5.352423 -21.186603 -0.112590 2.163456 -5.957540 -0.313347 2.617419 6.365595 -0.833415 3.437448 1.458887 -0.955133 1.712206 -2.026820 -7.260773 -9.415481 -10.159796 14.070289 -12.636506 2.859991 4.548809 -5.803655 3.905922 0.000000 0.000000 0.000000 20.913764 -3.122563 -27.902788 21.393750 -32.285030 6.258975 28.242721 17.028306 -18.218319 0.000000 0.000000 0.000000 -7.125000 0.000000 0.000000 0.156197 50.466220 -0.021068 0.000000 0.000000 0.000000 -34.138484 -72.958081 32.275016 -56.023970 -55.153720 -31.054670 -40.708854 19.577916 -1.672709 0.000000 0.000000 0.000000 7.125000 0.000000 0.000000 -10.849867 27.717820 -4.635851
-3.396951 18.799212 6.623942 8.887071 -18.115646 -0.331233 0.000000 0.000000 0.000000 -13.057939 -5.162044 -2.311950 1.840201 8.524946 24.320404 -0.487153 12.591255 -1.560888 2.369906 -9.595700 -27.678539 0.000000 0.000000 0.000000 9.343166 26.512248 -3.701687 -2.327996 -9.518071 27.429769 -0.827268 -6.662550 -20.853094 -0.068684 1.690973 -4.652414 0.358069 2.029507 5.681394 -0.567650 2.707098 1.011306 -0.982904 1.344845 -2.096808 -7.487856 -9.422137 -10.069584 14.439580 -12.611024 2.499671 4.708036 -5.794805 3.822801 0.000000 0.000000 0.000000 20.569667 -2.067060 -28.154028 21.868130 -32.827698 6.514272 28.563242 16.077176 -18.203107 0.000000 0.000000 0.000000 -7.125000 0.000000 0.000000 0.481233 50.505549 -0.065117 0.000000 0.000000 0.000000 -67.191532 -79.014809 -0.835898 -52.024399 -53.779537 -27.799321 -39.075519 19.395288 -2.009595 0.000000 0.000000 0.000000 7.125000 0.000000 0.000000 -9.566326 27.354622 -4.154613
-3.488883 18.872385 6.699073 8.637237 -18.893149 0.363670 0.000000 0.000000 0.000000 -12.727988 -5.522352 -1.337663 1.558056 7.877377 22.342222 -0.610673 14.268754 -0.961419 1.630744 -8.050407 -22.867386 0.000000 0.000000 0.000000 9.779307 26.793627 -3.212127 -2.042898 -8.954860 25.654255 -0.694471 -7.194263 -19.966419 -0.077486 1.795975 -4.942236 1.283647 1.832418 5.415329 -0.300472 2.505491 0.753028 -1.207419 1.236856 -2.189977 -8.100208 -9.305691 -10.746928 14.354187 -12.413678 3.224187 4.758755 -5.657296 4.161358 0.000000 0.000000 0.000000 20.052361 -0.683782 -27.682524 20.846551 -31.648718 5.969245 28.194331 16.321002 -18.005096 0.000000 0.000000 0.000000 -7.125000 0.000000 0.000000 0.144602 50.222274 -0.018630 0.000000 0.000000 0.000000 -103.731236 -77.629192 -40.217480 -47.867034 -52.098098 -24.480743 -38.433203 16.139554 -1.729160 0.000000 0.000000 0.000000 7.125000 0.000000 0.000000 -9.114815 27.734575 -3.871165
-3.544836 18.882031 6.739900 9.362875 -19.567603 0.386861 0.000000 0.000000 0.000000 -13.719903 -6.118608 -0.045848 1.356008 7.371120 20.819625 -0.730876 15.398436 -1.703533 1.629905 -8.048345 -22.860968 0.000000 0.000000 0.000000 9.117234 26.982671 -3.837477 -2.157549 -9.186797 26.381329 -0.728202 -7.021226 -20.166579 -0.115134 2.187404 -6.023844 0.943623 1.722478 5.480716 -0.136781 2.342815 0.821601 -0.838795 1.159075 -2.181171 -8.428193 -8.921172 -10.630001 14.186985 -11.775239 2.675404 4.837771 -5.377496 3.912449 0.000000 0.000000 0.000000 19.034021 0.450192 -26.850919 19.511071 -30.048757 5.284402 28.515117 18.093419 -17.677425 0.000000 0.000000 0.000000 -7.125000 0.000000 0.000000 0.519868 49.915043 -0.063039 0.000000 0.000000 0.000000 -110.671741 -73.892048 -53.462119 -45.603871 -51.060673 -22.707548 -39.883805 16.414864 1.098565 0.000000 0.000000 0.000000 7.125000 0.000000 0.000000 -10.603116 31.301961 -3.606266
-3.588773 18.838573 6.737278 9.193814 -18.874369 0.287774 0.000000 0.000000 0.000000 -13.281094 -6.362016 -0.644841 1.517343 7.778684 22.043867 -0.635790 14.353875 -1.736223 1.629311 -8.045581 -22.853403 0.000000 0.000000 0.000000 9.577499 26.606489 -4.443140 -2.390704 -9.636344 27.807108 -0.753404 -7.415246 -20.721469 -0.135750 2.374339 -6.541517 1.133798 1.363946 6.020828 0.018062 1.883233 1.144377 -0.763044 0.929648 -2.159054 -8.457316 -8.812770 -10.450471 14.565713 -11.586934 1.961957 4.994379 -5.300048 3.677352 0.000000 0.000000 0.000000 18.695578 1.345643 -26.690636 18.828802 -29.205374 4.947028 28.543245 19.378058 -17.874134 0.000000 0.000000 0.000000 -7.125000 0.000000 0.000000 0.515461 50.137673 -0.064527 0.000000 0.000000 0.000000 -96.024370 -69.766549 -46.807691 -47.020136 -51.720465 -23.814302 -41.827536 14.397307 -0.003393 0.000000 0.000000 0.000000 7.125000 0.000000 0.000000 -11.964701 29.863094 -4.506129
-3.612935 18.783174 6.730393 9.359216 -17.242537 -0.269186 0.000000 0.000000 0.000000 -13.069163 -6.618679 -1.146541 1.682210 8.170054 23.231846 -0.475663 12.645257 -0.783050 1.852202 -8.551207 -24.401155 0.000000 0.000000 0.000000 9.760797 25.613590 -4.664740 -2.685257 -10.167243 29.520036 -0.843560 -7.767858 -21.843811 -0.148693 2.485168 -6.848488 0.859283 0.925662 6.636235 0.179147 1.286456 1.740807 -0.402685 0.636187 -1.910208 -8.501808 -8.985426 -11.206349 14.330898 -11.773425 2.180804 4.879267 -5.363700 3.872653 0.000000 0.000000 0.000000 18.557096 1.611958 -27.104027 18.841278 -29.220945 4.953126 28.131606 18.835167 -17.939245 0.000000 0.000000 0.000000 -7.125000 0.000000 0.000000 0.092831 50.138648 -0.011604 0.000000 0.000000 0.000000 -77.030643 -63.878562 -33.772410 -49.180848 -52.659685 -25.521410 -40.779342 15.250976 1.367825 0.000000 0.000000 0.000000 7.125000 0.000000 0.000000 -11.350751 31.654331 -3.770308
-3.610020 18.704295 6.710515 9.639622 -17.537998 -0.589656 0.000000 0.000000 0.000000 -13.290048 -5.966821 -1.628312 1.844131 8.533550 24.346875 -0.461934 12.328619 -1.270664 1.959571 -8.781391 -25.113761 0.000000 0.000000 0.000000 9.454424 25.947369 -5.686902 -3.086593 -10.833837 31.721746 -1.027758 -6.841743 -22.786069 -0.103202 2.071363 -5.702775 0.601331 0.690524 7.038332 0.537082 0.965923 1.881903 0.131833 0.476470 -2.003129 -8.646876 -8.362446 -11.415102 12.950068 -10.838533 2.760949 4.558244 -4.939744 3.888277 0.000000 0.000000 0.000000 18.227595 2.953006 -26.486196 18.962004 -29.371525 5.012261 29.826029 19.864005 -17.050361 0.000000 0.000000 0.000000 -7.125000 0.000000 0.000000 1.918816 49.439468 -0.209520 0.000000 0.000000 0.000000 -58.317449 -58.987016 -16.743537 -50.448717 -53.174826 -26.532941 -41.884317 14.949151 2.549468 0.000000 0.000000 0.000000 7.125000 0.000000 0.000000 -12.413560 33.212740 -3.659873
-3.609829 18.592981 6.654923 10.751309 -19.299773 -1.140351 0.000000 0.000000 0.000000 -14.438727 -5.138155 -1.854316 1.998108 8.862057 25.364816 -0.464360 12.089483 -2.665746 2.308926 -9.481813 -27.314549 0.000000 0.000000 0.000000 8.189798 27.646391 -7.577780 -3.698516 -11.747938 34.846084 -1.205864 -5.631716 -23.482415 -0.103047 2.069867 -5.698728 -0.117526 0.985107 7.490978 0.351379 1.299469 2.082988 0.309427 0.643654 -2.058394 -8.623260 -7.781286 -12.109070 11.830539 -9.963692 3.311026 4.267355 -4.522957 4.001832 0.000000 0.000000 0.000000 18.877642 2.808367 -26.232031 18.401705 -28.668403 4.740447 27.693793 19.591491 -17.663704 0.000000 0.000000 0.000000 -7.125000 0.000000 0.000000 -0.296078 49.760281 0.034744 0.000000 0.000000 0.000000 -42.962891 -53.108759 1.068870 -52.874999 -54.090917 -28.486875 -41.287186 15.520014 2.095899 0.000000 0.000000 0.000000 7.125000 0.000000 0.000000 -11.863352 32.607024 -3.667764
